<svg width="30" height="30" viewBox="0 0 30 30" fill="none" xmlns="http://www.w3.org/2000/svg">
<circle opacity="0.21" cx="15" cy="15" r="15" fill="#D9D9D9"/>
<path d="M15.0013 11.9234C13.3014 11.918 11.92 13.2943 11.9147 14.9946C11.9093 16.695 13.2853 18.0766 14.9853 18.082C16.6852 18.0874 18.0666 16.711 18.0719 15.0107C18.0773 13.3104 16.7013 11.9287 15.0013 11.9234ZM14.9853 13.0051C16.0882 12.9998 16.9851 13.8914 16.9904 14.9946C16.9958 16.0978 16.1043 16.9949 15.0013 17.0002C13.8984 17.0056 13.0016 16.1139 12.9962 15.0107C12.9909 13.9075 13.8823 13.0105 14.9853 13.0051ZM17.4857 11.7975C17.4857 11.4012 17.8069 11.0799 18.2031 11.0799C18.5993 11.0799 18.9206 11.4012 18.9206 11.7975C18.9206 12.1938 18.5993 12.5151 18.2031 12.5151C17.8069 12.5151 17.4857 12.1938 17.4857 11.7975ZM20.9578 12.5258C20.9123 11.5645 20.6928 10.713 19.9887 10.0115C19.2873 9.30994 18.436 9.09037 17.475 9.04217C16.4844 8.98594 13.5156 8.98594 12.525 9.04217C11.5666 9.08769 10.7153 9.30726 10.0113 10.0088C9.30719 10.7104 9.09035 11.5619 9.04216 12.5232C8.98595 13.5139 8.98595 16.4834 9.04216 17.4742C9.08767 18.4355 9.30719 19.287 10.0113 19.9885C10.7153 20.6901 11.564 20.9096 12.525 20.9578C13.5156 21.0141 16.4844 21.0141 17.475 20.9578C18.436 20.9123 19.2873 20.6927 19.9887 19.9885C20.6901 19.287 20.9096 18.4355 20.9578 17.4742C21.0141 16.4834 21.0141 13.5166 20.9578 12.5258ZM19.6782 18.5372C19.4694 19.062 19.0651 19.4664 18.5378 19.6779C17.748 19.9912 15.8741 19.9189 15.0013 19.9189C14.1286 19.9189 12.252 19.9885 11.4649 19.6779C10.9402 19.469 10.536 19.0647 10.3245 18.5372C10.0113 17.7473 10.0835 15.8729 10.0835 15C10.0835 14.1271 10.0139 12.25 10.3245 11.4628C10.5333 10.938 10.9375 10.5336 11.4649 10.3221C12.2547 10.0088 14.1286 10.0811 15.0013 10.0811C15.8741 10.0811 17.7507 10.0115 18.5378 10.3221C19.0625 10.531 19.4667 10.9353 19.6782 11.4628C19.9914 12.2527 19.9191 14.1271 19.9191 15C19.9191 15.8729 19.9914 17.75 19.6782 18.5372Z" fill="white"/>
</svg>
