<svg width="30" height="30" viewBox="0 0 30 30" fill="none" xmlns="http://www.w3.org/2000/svg">
<path d="M19.9109 13.9915C18.9484 13.9937 18.0078 13.694 17.2247 13.134V17.043C17.2247 17.7671 17.0037 18.4737 16.5903 19.0687C16.1769 19.6637 15.5928 20.1187 14.9147 20.3724C14.2366 20.6262 13.4972 20.6677 12.795 20.4883C12.0928 20.309 11.4628 19.9218 10.9859 19.3771C10.5091 18.8324 10.2137 18.1521 10.1328 17.4324C10.0519 16.7127 10.1962 15.9865 10.5397 15.3499C10.8831 14.7133 11.4147 14.1971 12.0622 13.869C12.7097 13.5408 13.4381 13.4205 14.1556 13.519V15.4855C13.8275 15.3827 13.4753 15.3849 13.1494 15.4943C12.8234 15.6037 12.5391 15.8137 12.34 16.0915C12.1409 16.3693 12.0337 16.7062 12.0359 17.0518C12.0381 17.3974 12.1497 17.7299 12.3531 18.0077C12.5566 18.2855 12.8431 18.4912 13.1712 18.5962C13.4994 18.7012 13.8516 18.7012 14.1775 18.594C14.5034 18.4868 14.79 18.279 14.9912 18.0012C15.1925 17.7233 15.3019 17.3865 15.3019 17.043V9.3999H17.2269C17.2247 9.56178 17.24 9.72584 17.2684 9.88553C17.3362 10.2421 17.4741 10.5833 17.6775 10.8852C17.8809 11.1871 18.1434 11.4452 18.4475 11.6421C18.8828 11.9287 19.3925 12.0818 19.9131 12.0818V13.9937L19.9109 13.9915Z" fill="white"/>
<circle opacity="0.21" cx="15" cy="15" r="15" fill="#D9D9D9"/>
</svg>
