<svg width="30" height="30" viewBox="0 0 30 30" fill="none" xmlns="http://www.w3.org/2000/svg">
<circle opacity="0.21" cx="15" cy="15" r="15" fill="#D9D9D9"/>
<path d="M19.2027 10.7438C18.0804 9.61875 16.5857 9 14.9973 9C11.7187 9 9.05089 11.6679 9.05089 14.9464C9.05089 15.9938 9.32411 17.017 9.84375 17.9196L9 21L12.1527 20.1723C13.0205 20.6464 13.9982 20.8955 14.9946 20.8955H14.9973C18.2732 20.8955 21 18.2277 21 14.9491C21 13.3607 20.325 11.8688 19.2027 10.7438ZM14.9973 19.8938C14.108 19.8938 13.2375 19.6554 12.4795 19.2054L12.3 19.0982L10.4304 19.5884L10.9286 17.7643L10.8107 17.5768C10.3152 16.7893 10.0554 15.8813 10.0554 14.9464C10.0554 12.2223 12.2732 10.0045 15 10.0045C16.3205 10.0045 17.5607 10.5188 18.4929 11.4536C19.425 12.3884 19.9982 13.6286 19.9955 14.9491C19.9955 17.6759 17.7214 19.8938 14.9973 19.8938ZM17.708 16.192C17.5607 16.117 16.8295 15.758 16.6929 15.7098C16.5563 15.6589 16.4571 15.6348 16.358 15.7848C16.2589 15.9348 15.975 16.267 15.8866 16.3688C15.8009 16.4679 15.7125 16.4813 15.5652 16.4063C14.692 15.9696 14.1188 15.6268 13.5429 14.6384C13.3902 14.3759 13.6955 14.3946 13.9795 13.8268C14.0277 13.7277 14.0036 13.642 13.9661 13.567C13.9286 13.492 13.6312 12.7607 13.508 12.4634C13.3875 12.1741 13.2643 12.2143 13.1732 12.2089C13.0875 12.2036 12.9884 12.2036 12.8893 12.2036C12.7902 12.2036 12.6295 12.2411 12.4929 12.3884C12.3562 12.5384 11.9732 12.8973 11.9732 13.6286C11.9732 14.3598 12.5063 15.067 12.5786 15.1661C12.6536 15.2652 13.6259 16.7652 15.1179 17.4107C16.0607 17.8179 16.4304 17.8527 16.9018 17.783C17.1884 17.7402 17.7804 17.4241 17.9036 17.0759C18.0268 16.7277 18.0268 16.4304 17.9893 16.3688C17.9545 16.3018 17.8554 16.2643 17.708 16.192Z" fill="white"/>
</svg>
