<svg width="222" height="78" viewBox="0 0 222 78" fill="none" xmlns="http://www.w3.org/2000/svg">
<g clip-path="url(#clip0_79_25)">
<path d="M158.802 1.22966C156.568 4.5171 152.445 10.1635 149.534 13.9277C140.266 25.8897 132.177 34.5057 126.037 38.9559L125.225 39.5497L124.824 39.4744C122.515 39.0394 119.077 38.8554 117.906 39.0981C117.161 39.2485 116.216 39.6751 115.739 40.0767C115.388 40.3695 114.928 41.0973 114.928 41.3733C114.928 41.641 114.669 41.9338 111.992 44.7694C109.248 47.6638 105.969 50.9345 104.681 52.0388C101.636 54.657 99.3021 56.0455 97.6876 56.1877C96.9348 56.2546 96.5751 56.171 96.2154 55.8531C95.3706 55.1087 95.4208 54.0463 96.3912 52.5154C96.6253 52.1307 103.945 42.3855 112.653 30.8502C121.361 19.3147 128.479 9.85398 128.479 9.82888C128.479 9.80379 127.484 9.78706 126.271 9.78706H124.071L113.79 23.2965C108.144 30.7246 103.51 36.7977 103.501 36.7809C103.493 36.7725 103.535 36.5551 103.602 36.3042C103.677 36.028 103.719 35.5848 103.702 35.2083C103.677 34.6729 103.635 34.5139 103.426 34.1626C103.117 33.6775 102.548 33.2257 101.753 32.8326C100.289 32.1216 98.7082 32.0379 96.5668 32.5482C93.4048 33.301 89.7159 35.5095 85.9014 38.9223C84.2367 40.4197 81.8778 42.7618 80.5896 44.209C79.0254 45.9573 75.0603 49.7299 72.7264 51.7041C69.414 54.4896 66.8626 56.0456 65.5995 56.0456C64.947 56.0456 64.512 55.5186 64.5957 54.8158C64.7797 53.1679 69.3219 47.0364 78.6907 35.8105C80.3136 33.8698 81.6352 32.2554 81.6102 32.2387C81.5934 32.2219 80.3805 32.2638 78.9082 32.3391L76.2397 32.4729L75.9721 32.7741C75.8299 32.9413 75.0186 33.9451 74.182 35.0076C68.544 42.1177 63.5752 47.3376 57.9204 52.1223C53.7798 55.6189 52.3995 56.4053 51.2451 55.895C50.4171 55.5269 50.2831 54.5565 50.8938 53.327C52.2154 50.6585 58.2717 42.8121 65.9842 33.8029L67.4398 32.0965L66.8208 32.1466C66.4779 32.1718 65.2314 32.2638 64.0519 32.3391L61.8937 32.4813L59.9949 34.7901C52.9935 43.2805 53.1022 43.155 51.1281 44.9703C43.633 51.8713 39.0657 55.3429 36.8574 55.7946C36.0793 55.9536 35.5692 55.7193 35.2846 55.0836C35.0673 54.5984 35.176 54.0714 35.703 52.9923C36.2634 51.8297 36.9493 50.8341 40.9479 45.2965C45.8748 38.4874 46.2094 37.9938 46.6444 36.7977C46.8367 36.279 46.8702 36.0364 46.8786 35.3004C46.8786 34.5223 46.8535 34.3717 46.6611 33.9535C46.0756 32.7156 44.8209 32.0379 43.1143 32.0463C42.1021 32.0463 41.1904 32.3056 39.852 32.9748C37.9197 33.9535 35.3517 35.9193 32.5995 38.5543C32.0976 39.031 31.6962 39.3991 31.6962 39.3741C31.6962 39.3573 31.9053 38.9056 32.1562 38.3787C33.3775 35.844 33.2938 33.8616 31.9387 32.7907C30.1318 31.3603 27.1707 32.2303 22.4695 35.568C21.2817 36.4128 19.6087 37.7346 18.5044 38.7216C18.0778 39.0897 17.7099 39.3991 17.6847 39.3991C17.6596 39.3991 17.7265 39.2235 17.8437 38.9976C18.379 37.9437 18.7638 36.187 18.7137 35.0494C18.655 33.7528 18.1782 32.9413 17.1577 32.4394C16.639 32.1802 16.5471 32.1634 15.7608 32.1718C15.033 32.1718 14.8323 32.2053 14.2216 32.4394C12.2977 33.1672 10.7669 34.3717 6.47562 38.5627C5.64748 39.3741 4.82772 40.1353 4.66041 40.2691C4.49311 40.3945 4.26726 40.6707 4.17525 40.8714C3.99958 41.2227 3.99958 41.2561 4.13341 41.457C4.25053 41.6326 4.31745 41.6661 4.51821 41.6242C4.98664 41.5323 5.56383 41.0386 8.06497 38.5543C11.2855 35.3673 12.0802 34.698 13.4102 34.0873C14.2383 33.7026 14.8406 33.6357 15.3342 33.8698C15.9364 34.1626 16.179 34.6729 16.0368 35.3505C15.8611 36.2037 14.7654 38.1612 13.4855 39.8844C13.1342 40.3695 4.38436 51.5953 0.385893 56.698C0.160038 56.9908 -0.015627 57.2334 0.00110307 57.25C0.0178331 57.2668 1.14711 57.3254 2.50224 57.3756L4.96992 57.4759L5.16231 57.2418C5.66421 56.6394 7.37068 54.3055 8.65053 52.4904C12.1555 47.5048 14.6566 44.4768 18.036 41.1558C21.9174 37.333 25.2718 34.857 27.2626 34.3383C28.0323 34.1376 28.7433 34.1961 29.128 34.4889C29.7471 34.9573 29.7555 35.7352 29.1531 36.9147C28.6764 37.86 27.4969 39.3991 19.6003 49.3953C16.9987 52.6828 13.4939 57.1915 13.3433 57.4425C13.2931 57.5262 13.795 57.5513 15.7524 57.5513H18.2118L19.9098 55.3093C26.7607 46.2835 29.7805 42.8623 35.1508 38.0356C37.6353 35.8105 38.1288 35.409 39.2581 34.7314C40.2954 34.1125 41.3493 33.8113 41.9433 33.9703C42.3114 34.0707 42.763 34.4638 42.9052 34.7985C43.0725 35.1999 42.9721 35.9361 42.6711 36.5718C42.0855 37.7847 41.2239 38.9809 38.1288 42.879C33.9882 48.0988 32.541 50.1816 31.7547 52.114C31.3447 53.1178 31.2444 53.6113 31.2946 54.4143C31.3782 55.669 31.9638 56.5391 33.0763 57.0578C34.306 57.635 35.8117 57.7019 37.2087 57.225C39.8436 56.3384 43.4406 53.7702 48.3508 49.2699C49.0953 48.5923 49.1205 48.5756 48.903 48.9353C47.6649 50.9763 47.0877 52.4904 47.0877 53.6614C47.0877 55.5352 48.4345 57.0912 50.3166 57.4007C51.4459 57.5931 53.2276 57.1916 54.7417 56.4137C56.7075 55.4015 58.4307 54.0045 61.509 50.901L63.7509 48.6424L63.2824 49.5209C62.2368 51.5034 61.6428 53.2851 61.6428 54.4479C61.6428 57.685 64.2946 58.4631 68.3767 56.4137C70.4763 55.3596 73.5714 53.0425 76.2063 50.5413C76.6078 50.1649 76.9509 49.8555 76.9759 49.8555C76.9926 49.8555 76.9257 50.165 76.8169 50.5331C76.0975 53.0007 76.5409 55.4768 77.8878 56.5725C78.6573 57.2 79.4604 57.4593 80.7987 57.5262C84.0025 57.6766 87.2481 55.9787 92.0413 51.6372C92.6854 51.0516 93.1873 50.65 93.1539 50.7421C92.7021 52.1892 92.6604 52.3732 92.6185 53.2432C92.5851 53.9458 92.6017 54.2889 92.7105 54.6989C93.2793 56.9072 95.6466 58.095 98.2398 57.4759C101 56.8068 104.831 53.971 109.348 49.228C110.135 48.3999 111.791 46.66 113.029 45.3718L115.271 43.0128L115.681 43.2889C116.266 43.6821 116.777 43.7824 117.973 43.7239C119.914 43.6318 122.624 42.7033 124.966 41.3232L125.426 41.0554L126.221 41.2729C126.656 41.3983 128.488 41.9505 130.278 42.4942C135.272 44.025 138.308 44.8281 140.358 45.171C140.659 45.2212 140.985 45.2797 141.085 45.2965C141.253 45.3384 141.202 45.4722 140.19 47.5383C138.894 50.1984 137.94 52.2729 136.978 54.5064C136.301 56.0958 134.837 59.7429 134.837 59.8433C134.837 59.8683 135.807 59.8935 136.995 59.8935H139.145L139.596 58.781C139.939 57.9444 143.854 48.7596 144.984 46.1664L145.151 45.7816L146.665 45.7315C148.279 45.6813 149.342 45.5391 150.697 45.2044C153.808 44.4433 156.811 42.879 159.246 40.7376C159.672 40.3611 160.048 40.0014 160.074 39.9261C160.099 39.8509 160.024 39.7003 159.873 39.5497L159.622 39.2988L159.337 39.5497C157.171 41.4402 151.968 42.8455 147.543 42.7284L146.581 42.7033L147.284 41.1976C148.38 38.8303 151.626 32.3559 152.737 30.2812C156.175 23.9155 158.46 20.2266 162.985 13.7604C164.148 12.1042 165.16 10.6486 165.243 10.5148L165.385 10.289H164.716H164.038L162.81 11.9369C154.117 23.6061 148.58 31.9627 143.787 40.6539C143.269 41.5992 142.809 42.4105 142.775 42.4608C142.599 42.6783 137.815 41.9338 130.947 40.6038C129.157 40.2607 127.618 39.9513 127.526 39.9178C127.4 39.8592 127.45 39.8007 127.835 39.5413C128.63 39.0144 130.897 37.2828 132.009 36.3543C135.723 33.2425 140.592 28.3824 144.916 23.4639C149.007 18.8128 152.913 13.9863 157.045 8.49048C158.961 5.93916 161.664 2.20836 162.592 0.819771L163.027 0.184031L162.499 0.13384C162.216 0.108745 161.454 0.06692 160.81 0.0501901L159.639 0L158.802 1.22966ZM100.699 33.8448C101.301 34.0204 101.87 34.5892 102.071 35.2083C102.556 36.7308 101.845 39.0646 100.139 41.482C99.2185 42.787 98.2983 43.8159 95.9812 46.1664C92.0079 50.19 88.9296 52.7664 86.0352 54.4813C82.7227 56.4471 80.5059 56.5641 79.9957 54.7992C79.4604 52.9756 81.3592 49.5877 85.5166 44.9619C88.2855 41.8836 92.2672 37.885 93.8899 36.5551C96.6003 34.3467 99.0763 33.3597 100.699 33.8448ZM121.453 40.1854C122.791 40.3863 123.46 40.5117 123.46 40.5619C123.46 40.6539 121.771 41.5489 121.026 41.8585C119.73 42.3939 118.91 42.5946 117.856 42.6364C116.969 42.6699 116.86 42.6615 116.517 42.4774C116.308 42.3687 116.141 42.2433 116.141 42.1848C116.141 42.1261 116.492 41.6661 116.927 41.1642C117.596 40.3695 117.747 40.2357 118.015 40.1854C118.182 40.1604 118.358 40.1269 118.399 40.1101C118.634 40.0348 120.758 40.0851 121.453 40.1854Z" fill="white"/>
<path d="M196.486 1.68136C192.178 2.16654 187.394 4.89352 182.61 9.57793C176.703 15.3582 171.852 22.9368 168.765 31.2181C165.629 39.6501 164.843 48.6927 166.766 54.2386C167.378 55.9953 168.122 57.2752 169.193 58.396C170.304 59.5588 171.501 60.2782 173.031 60.7048C173.81 60.9223 173.96 60.939 175.449 60.9307C176.946 60.9307 177.098 60.914 178.008 60.6714C180.527 60.0023 182.944 58.6888 185.695 56.4972C187.152 55.3345 190.263 52.2228 191.711 50.4828C200.97 39.3406 207.254 23.9406 206.918 13.2585C206.852 11.0836 206.667 9.82888 206.183 8.2479C205.011 4.41672 202.334 2.09125 198.638 1.68136C197.733 1.58098 197.398 1.58098 196.486 1.68136ZM200.502 3.06159C202.142 3.60531 203.715 5.1361 204.609 7.06843C205.154 8.2479 205.537 9.68667 205.789 11.4182C205.923 12.3886 205.923 15.7345 205.789 16.9392C205.119 22.7862 203.021 29.3527 199.649 36.0783C194.321 46.7436 187.001 55.3764 180.66 58.5048C178.62 59.5086 177.147 59.8935 175.382 59.8935C173.174 59.8935 171.635 59.3163 170.346 58.0113C169.334 56.9824 168.648 55.4934 168.281 53.5527C168.122 52.7079 168.096 52.2813 168.096 50.4828C168.089 47.4714 168.398 45.1543 169.268 41.6577C172.011 30.5658 179.498 17.5162 187.838 9.26842C191.126 6.0228 193.969 4.05702 196.638 3.18706C198.126 2.70189 199.29 2.66007 200.502 3.06159Z" fill="white"/>
<path d="M214.806 8.1977V11.1255H211.794H208.774L208.8 11.8114L208.825 12.5057L211.819 12.5308L214.806 12.5475V15.517V18.4866H215.475H216.144V15.517V12.5475H219.072H222V11.8365V11.1255H219.072H216.144V8.1977V5.26996H215.475H214.806V8.1977Z" fill="white"/>
<path d="M203.872 66.7945C203.229 67.0707 203.655 68.0074 204.308 67.7565C204.618 67.6395 204.751 67.2964 204.601 67.0288C204.433 66.7444 204.19 66.6607 203.872 66.7945Z" fill="white"/>
<path d="M127.811 71.1025V75.0341H129.885C132.077 75.0341 132.754 74.9505 133.398 74.6243C134.352 74.139 134.687 72.8676 134.118 71.8804C133.9 71.4957 133.624 71.2782 133.131 71.0857L132.813 70.9604L133.097 70.7931C134.235 70.1238 134.26 68.2918 133.139 67.6395C132.462 67.2379 131.96 67.1711 129.801 67.1711H127.811V71.1025ZM131.993 67.9322C132.713 68.0996 133.164 68.6181 133.164 69.2622C133.164 69.7809 132.947 70.1573 132.503 70.4166C132.127 70.6425 132.102 70.6425 130.387 70.6675L128.647 70.6926V69.2706V67.8402H130.136C130.947 67.8402 131.784 67.8821 131.993 67.9322ZM132.779 71.6463C133.424 71.9725 133.608 72.282 133.557 72.968C133.524 73.5618 133.34 73.838 132.779 74.114C132.386 74.3147 132.303 74.323 130.512 74.3481L128.647 74.3817V72.8592V71.3367L130.471 71.3619L132.286 71.3954L132.779 71.6463Z" fill="white"/>
<path d="M165.621 71.1025V75.0341H166.038H166.457L166.473 71.847L166.499 68.66L169.008 71.822L171.518 74.9923L171.878 75.0174L172.229 75.0425V71.1109V67.1711H171.81H171.392L171.375 70.333L171.351 73.5033L168.842 70.333L166.332 67.1711H165.98H165.621V71.1025Z" fill="white"/>
<path d="M105.618 69.1535C105.585 69.1787 105.56 71.0106 105.56 73.2105V77.2091H105.978H106.396V75.5946V73.9802L106.806 74.3733C107.308 74.8584 107.843 75.0509 108.68 75.0425C109.541 75.0425 110.16 74.7999 110.713 74.2478C111.306 73.6455 111.532 73.0599 111.532 72.0645C111.532 71.3954 111.507 71.2532 111.281 70.7679C110.963 70.1156 110.537 69.6722 109.918 69.3627C109.508 69.1619 109.349 69.1368 108.655 69.1368C107.693 69.1368 107.266 69.3041 106.689 69.8897L106.312 70.2828V69.6888V69.095H105.995C105.819 69.095 105.643 69.12 105.618 69.1535ZM109.29 69.8897C109.792 70.0403 110.361 70.5588 110.595 71.0775C110.821 71.5794 110.821 72.5414 110.604 73.0349C110.361 73.5702 110.052 73.9049 109.558 74.1474C108.37 74.7414 106.84 74.1056 106.471 72.8592C106.338 72.4326 106.413 71.3786 106.597 71.0022C107.074 70.0151 108.178 69.555 109.29 69.8897Z" fill="white"/>
<path d="M114.752 69.2121C113.866 69.4462 113.146 70.0903 112.828 70.9269C112.577 71.596 112.577 72.5664 112.837 73.2357C113.104 73.9216 113.79 74.6074 114.46 74.8584C114.97 75.0424 115.89 75.1093 116.392 74.9839C117.772 74.6577 118.709 73.311 118.583 71.8638C118.508 71.0022 118.299 70.5421 117.722 69.9565C117.295 69.5215 117.136 69.4212 116.651 69.2706C116.015 69.0783 115.33 69.0531 114.752 69.2121ZM116.35 69.8896C116.877 70.0737 117.32 70.4668 117.571 70.9771C118.031 71.9391 117.789 73.2273 117.011 73.888C116.618 74.2311 116.199 74.3649 115.547 74.3649C114.936 74.3649 114.468 74.1558 114.025 73.6957C113.397 73.06 113.221 71.8888 113.631 71.0607C113.874 70.5672 113.958 70.45 114.342 70.1656C114.869 69.7725 115.689 69.6553 116.35 69.8896Z" fill="white"/>
<path d="M120.256 69.1534C120.223 69.1786 120.198 70.5169 120.198 72.1231V75.034H120.608H121.026L121.051 73.0851L121.076 71.1444L121.31 70.7512C121.603 70.2493 122.147 69.9147 122.758 69.8646L123.209 69.831V69.4462V69.0699L122.783 69.12C122.113 69.2037 121.503 69.5215 121.227 69.9397L120.992 70.2994L120.967 69.6972L120.942 69.0949H120.624C120.449 69.0949 120.281 69.12 120.256 69.1534Z" fill="white"/>
<path d="M136.234 69.1534C136.201 69.1786 136.176 70.5169 136.176 72.1231V75.034H136.586H137.004L137.029 73.0851L137.054 71.1444L137.288 70.7512C137.581 70.2493 138.125 69.9147 138.736 69.8646L139.187 69.831V69.4462V69.0699L138.761 69.12C138.091 69.2037 137.481 69.5215 137.205 69.9397L136.97 70.2994L136.945 69.6972L136.92 69.0949H136.602C136.427 69.0949 136.259 69.12 136.234 69.1534Z" fill="white"/>
<path d="M140.692 71.0859C140.692 72.5748 140.726 73.1855 140.81 73.4783C141.127 74.5239 141.914 75.0425 143.177 75.0425C143.921 75.0425 144.507 74.8083 144.984 74.3148L145.293 73.9968V74.5155V75.0341H145.67H146.046V72.0645V69.095H145.678H145.31L145.276 70.952C145.251 72.6668 145.226 72.8508 145.059 73.2357C144.808 73.7793 144.666 73.9299 144.164 74.1642C143.411 74.5155 142.466 74.3984 141.922 73.8798C141.521 73.4949 141.445 73.0349 141.445 70.9604V69.095H141.069H140.692V71.0859Z" fill="white"/>
<path d="M148.28 69.1535C148.246 69.1787 148.221 70.517 148.221 72.1232V75.0341H148.639H149.058V73.2105C149.066 71.9139 149.099 71.3033 149.175 71.0775C149.476 70.2494 150.146 69.806 151.107 69.8144C151.877 69.8144 152.312 70.0319 152.63 70.5756L152.864 70.9772L152.889 73.0014L152.913 75.0341H153.29H153.659V73.0433C153.659 70.6509 153.6 70.3497 152.997 69.7475C152.496 69.2456 151.886 69.0531 151.023 69.12C150.296 69.1703 149.76 69.4128 149.309 69.8729L148.974 70.2242V69.6554V69.095H148.656C148.48 69.095 148.305 69.12 148.28 69.1535Z" fill="white"/>
<path d="M156.903 69.2121C156.419 69.3543 155.792 69.6554 155.666 69.806C155.598 69.8897 155.598 69.965 155.658 70.0737C155.876 70.4585 155.876 70.4585 156.21 70.2326C156.662 69.9231 157.121 69.806 157.883 69.806C158.444 69.806 158.603 69.8394 158.879 70.0068C159.272 70.2494 159.506 70.7345 159.513 71.2866V71.6882H158.435C156.779 71.6882 156.11 71.8638 155.682 72.4242C155.481 72.6836 155.457 72.7923 155.457 73.3611C155.457 73.9383 155.481 74.0303 155.699 74.3147C155.841 74.5071 156.117 74.7162 156.393 74.8418C156.795 75.0258 156.938 75.0425 157.614 75.0174C158.484 74.984 158.861 74.8418 159.314 74.3817L159.597 74.0889V74.5574V75.0341H159.974H160.35V73.2942C160.341 70.3581 160.158 69.7725 159.054 69.2706C158.694 69.1118 157.389 69.0699 156.903 69.2121ZM159.513 72.7755C159.513 73.3611 159.389 73.6539 158.978 74.0136C158.243 74.6577 156.662 74.574 156.302 73.8714C156.101 73.4949 156.126 72.993 156.36 72.7338C156.662 72.3824 157.088 72.282 158.367 72.2736H159.513V72.7755Z" fill="white"/>
<path d="M176.151 69.2121C174.838 69.5634 174.051 70.6341 174.043 72.0645C174.043 72.993 174.277 73.587 174.897 74.206C175.491 74.7915 176.085 75.0424 176.946 75.0424C177.64 75.0508 177.907 74.9923 178.377 74.758C178.903 74.4987 179.221 74.2143 179.497 73.7961C180.568 72.1147 179.823 69.8227 178.024 69.2622C177.414 69.0783 176.728 69.0531 176.151 69.2121ZM177.748 69.8896C178.276 70.0737 178.719 70.4668 178.969 70.9771C179.43 71.9391 179.187 73.2273 178.41 73.888C178.017 74.2311 177.598 74.3649 176.946 74.3649C176.335 74.3649 175.867 74.1558 175.423 73.6957C174.42 72.6667 174.703 70.6843 175.95 70.0402C176.52 69.739 177.171 69.6888 177.748 69.8896Z" fill="white"/>
<path d="M183.162 69.1786C182.416 69.3709 181.681 69.9399 181.354 70.584C181.104 71.0859 180.987 71.8554 181.095 72.4158C181.27 73.3945 181.773 74.0721 182.65 74.4987C183.094 74.7162 183.228 74.7414 183.981 74.7414C184.726 74.7414 184.867 74.7162 185.295 74.5071C185.554 74.3817 185.88 74.139 186.022 73.9801L186.282 73.6873V74.3398C186.282 75.2265 186.165 75.5946 185.746 76.0044C185.302 76.4562 184.884 76.5649 183.88 76.5231C183.169 76.4896 183.045 76.4646 182.433 76.1466L181.764 75.8037L181.588 76.0965C181.488 76.2553 181.422 76.3893 181.438 76.4059C182.893 77.485 185.412 77.5269 186.373 76.4812C187.018 75.7953 187.135 74.9839 187.101 71.5626L187.077 69.1368L186.724 69.1117L186.366 69.0865V69.6303C186.366 69.9315 186.348 70.1824 186.324 70.1824C186.298 70.1824 186.165 70.0485 186.022 69.8896C185.613 69.4212 184.984 69.1618 184.173 69.1284C183.789 69.1117 183.337 69.1368 183.162 69.1786ZM184.825 69.8896C186.415 70.3581 186.85 72.4911 185.587 73.5702C184.893 74.1642 183.772 74.2729 182.944 73.8129C182.217 73.4196 181.848 72.7839 181.848 71.9139C181.848 70.3915 183.27 69.4212 184.825 69.8896Z" fill="white"/>
<path d="M189.309 71.2448C189.335 73.2357 189.351 73.4364 189.51 73.7793C189.896 74.6075 190.497 74.9672 191.61 75.0174C192.287 75.0509 192.422 75.0341 192.822 74.85C193.065 74.733 193.409 74.4987 193.584 74.3147L193.893 73.9968V74.5155V75.0341H194.27H194.646V72.0645V69.095H194.279H193.91L193.877 70.952C193.851 72.6668 193.827 72.8508 193.659 73.2357C193.409 73.7793 193.266 73.9299 192.764 74.1642C192.011 74.5155 191.066 74.3984 190.523 73.8798C190.121 73.4949 190.046 73.0349 190.046 70.9604V69.095H189.66H189.284L189.309 71.2448Z" fill="white"/>
<path d="M198.369 69.2037C197.883 69.3627 197.684 69.4881 197.265 69.8729C196.788 70.3079 196.52 70.8516 196.403 71.5626C196.185 72.9011 196.821 74.1893 197.984 74.7581C198.411 74.9756 198.536 74.9924 199.415 74.9924C200.31 74.9924 200.411 74.9756 200.853 74.7497C201.122 74.6159 201.414 74.4234 201.515 74.3147L201.69 74.1224L201.498 73.8798L201.297 73.6455L200.921 73.9049C200.427 74.2562 200.084 74.3649 199.457 74.3649C198.821 74.3649 198.294 74.1893 197.876 73.8462C197.525 73.5618 197.156 72.8676 197.156 72.4995V72.2736H199.632H202.116L202.067 71.7885C201.899 70.1991 200.87 69.1869 199.356 69.12C198.963 69.1034 198.57 69.1368 198.369 69.2037ZM200.084 69.9398C200.61 70.1741 200.979 70.5588 201.171 71.0775C201.447 71.8304 201.606 71.7717 199.247 71.7717H197.156V71.5376C197.165 71.1276 197.49 70.5672 197.967 70.1573C198.437 69.7475 199.44 69.6471 200.084 69.9398Z" fill="white"/>
<path d="M203.739 69.1452C203.706 69.1787 203.681 70.517 203.681 72.1232V75.0341H204.099H204.518L204.501 72.0813L204.476 69.1368L204.141 69.1118C203.949 69.095 203.772 69.1118 203.739 69.1452Z" fill="white"/>
<path d="M206.751 69.1534C206.718 69.1786 206.692 70.5169 206.692 72.1231V75.034H207.102H207.52L207.546 73.0851L207.57 71.1444L207.805 70.7512C208.098 70.2493 208.641 69.9147 209.251 69.8646L209.704 69.831V69.4462V69.0699L209.277 69.12C208.65 69.1953 207.997 69.5299 207.763 69.8812C207.654 70.0485 207.546 70.1824 207.511 70.1824C207.471 70.1824 207.445 69.9397 207.445 69.6387V69.0949H207.127C206.952 69.0949 206.776 69.12 206.751 69.1534Z" fill="white"/>
<path d="M212.196 69.2121C211.712 69.3543 211.085 69.6554 210.959 69.806C210.891 69.8897 210.891 69.965 210.949 70.0737C211.167 70.4585 211.167 70.4585 211.502 70.2326C211.955 69.9231 212.414 69.806 213.176 69.806C213.735 69.806 213.894 69.8394 214.17 70.0068C214.563 70.2494 214.798 70.7345 214.806 71.2866V71.6882H213.728C212.072 71.6882 211.401 71.8638 210.975 72.4242C210.774 72.6836 210.75 72.7923 210.75 73.3611C210.75 73.9383 210.774 74.0303 210.991 74.3147C211.134 74.5071 211.41 74.7162 211.686 74.8418C212.088 75.0258 212.231 75.0425 212.907 75.0174C213.777 74.984 214.154 74.8418 214.605 74.3817L214.89 74.0889V74.5574V75.0341H215.267H215.643V73.2942C215.634 70.3581 215.451 69.7725 214.346 69.2706C213.987 69.1118 212.682 69.0699 212.196 69.2121ZM214.806 72.7755C214.806 73.3611 214.682 73.6539 214.271 74.0136C213.536 74.6577 211.955 74.574 211.595 73.8714C211.394 73.4949 211.419 72.993 211.653 72.7338C211.955 72.3824 212.381 72.282 213.66 72.2736H214.806V72.7755Z" fill="white"/>
</g>
<defs>
<clipPath id="clip0_79_25">
<rect width="222" height="78" fill="white"/>
</clipPath>
</defs>
</svg>
