<svg width="725" height="115" viewBox="0 0 725 115" fill="none" xmlns="http://www.w3.org/2000/svg">
<path d="M160.673 63.13C148.363 59.51 137.433 55.47 137.433 45.48C137.433 36.27 146.643 29.9 160.073 29.9C174.013 29.9 182.883 36.7 182.883 47.03H176.343C176.343 38.34 169.803 32.57 159.293 32.57C149.743 32.57 143.293 37.3 143.293 43.57C143.293 50.97 152.503 53.81 163.293 57C172.853 59.84 184.393 63.88 184.393 74.56C184.393 84.46 174.663 91.17 160.393 91.17C146.123 91.17 136.633 84.37 136.633 74.04H143.173C143.173 82.74 150.173 88.51 161.173 88.51C171.593 88.51 178.653 83.43 178.653 76.63C178.583 68.64 168.593 65.45 160.673 63.13Z" fill="white"/>
<path d="M197.693 90.68V30.42H242.693V33.6H204.233V58.27H237.813V61.46H204.233V87.54H242.723V90.73L197.693 90.68Z" fill="white"/>
<path d="M255.803 30.42H263.803L289.713 83.36L315.373 30.42H323.293V90.68H316.753V35.27L289.923 90.68H286.223L259.253 35.27V90.71H255.803V30.42Z" fill="white"/>
<path d="M334.073 90.68L361.923 30.42H365.713L393.433 90.68H386.633L378.323 72.77H346.123L337.853 90.68H334.073ZM377.073 70.1L362.173 37.99L347.323 70.1H377.073Z" fill="white"/>
<path d="M446.503 0.100009C452.554 0.373123 458.412 2.31494 463.428 5.7106C468.443 9.10627 472.422 13.8234 474.923 19.34C474.961 19.4116 474.981 19.4911 474.981 19.5718C474.982 19.6526 474.964 19.7324 474.928 19.8047C474.891 19.877 474.839 19.9396 474.774 19.9875C474.709 20.0354 474.633 20.0671 474.553 20.08L473.433 20.58C473.063 20.7 472.943 20.58 472.813 20.33C466.983 8.42002 457.673 3.95001 443.283 3.95001C427.883 3.95001 411.503 15.37 411.503 39.07C411.503 64.51 429.993 83.01 450.973 83.01C455.76 83.0387 460.5 82.0589 464.883 80.1344C469.266 78.2099 473.195 75.3837 476.413 71.84C476.54 71.4734 476.79 71.4734 477.163 71.84L477.533 72.21C477.639 72.298 477.71 72.4214 477.732 72.5575C477.754 72.6935 477.726 72.833 477.653 72.95C469.713 83.88 457.553 89.34 444.143 89.34C419.323 89.34 399.093 70.97 399.093 44.66C399.093 29.66 405.173 15.86 418.093 7.42002C426.54 2.01117 436.495 -0.55384 446.503 0.100009Z" fill="white"/>
<path d="M494.293 24.8C494.663 24.8 494.783 24.92 494.783 25.29V62.03C494.783 71.47 495.903 76.18 499.383 79.53C501.243 81.64 504.093 82.64 507.943 82.64C514.273 82.64 522.833 79.04 528.173 73.33C528.219 73.279 528.254 73.2186 528.275 73.1531C528.295 73.0875 528.302 73.0183 528.293 72.95V25.27C528.293 24.9 528.423 24.78 528.793 24.78H539.463C539.843 24.78 540.093 24.9 540.093 25.27V87.46C540.098 87.5435 540.084 87.6269 540.054 87.7048C540.024 87.7827 539.978 87.8533 539.918 87.9119C539.858 87.9705 539.787 88.0159 539.709 88.0449C539.63 88.0738 539.547 88.0858 539.463 88.08H528.793C528.423 88.08 528.293 87.83 528.293 87.46V79.64C528.293 79.14 527.803 78.77 527.433 79.14C520.353 84.48 510.673 88.08 502.233 88.08C486.963 88.08 482.993 82.08 482.993 63.01V25.27C482.993 24.9 483.243 24.78 483.613 24.78L494.293 24.8Z" fill="white"/>
<path d="M581.673 24.18C600.533 24.18 616.913 37.33 616.913 56.57C616.913 75.81 600.533 88.72 581.673 88.72C562.553 88.72 546.293 75.93 546.293 56.57C546.293 37.21 562.553 24.18 581.673 24.18ZM605.123 60.27C606.123 43.02 597.683 27.01 582.293 26.02C568.013 25.02 559.203 37.19 558.213 52.08C557.213 69.34 565.783 84.97 581.673 85.97C595.443 86.98 604.133 75.19 605.123 60.27Z" fill="white"/>
<path d="M623.123 25.27C623.123 24.9 623.373 24.78 623.743 24.78H634.423C634.793 24.78 634.913 24.9 634.913 25.27V41.27C634.914 41.3858 634.95 41.4985 635.017 41.5933C635.083 41.688 635.177 41.7603 635.285 41.8005C635.394 41.8406 635.512 41.8468 635.624 41.8181C635.736 41.7895 635.837 41.7273 635.913 41.64C640.753 36.8 644.733 31.21 650.563 27.36C653.043 25.75 656.023 24.51 659.123 25.01C659.882 25.0949 660.612 25.3505 661.258 25.7574C661.904 26.1644 662.449 26.7123 662.853 27.36C662.899 27.4111 662.934 27.4714 662.955 27.537C662.975 27.6025 662.982 27.6718 662.973 27.74V37.74C662.973 38.36 662.233 38.48 661.853 37.99C660.373 34.14 658.013 32.78 655.403 32.78C648.403 32.78 639.643 42.58 635.053 46.92C635.004 46.9694 634.967 47.0293 634.945 47.0951C634.922 47.1609 634.915 47.231 634.923 47.3V87.39C634.923 87.76 634.803 88.01 634.433 88.01H623.743C623.661 88.0143 623.578 88.0012 623.501 87.9716C623.424 87.942 623.354 87.8965 623.295 87.838C623.237 87.7796 623.191 87.7095 623.162 87.6323C623.132 87.5551 623.119 87.4726 623.123 87.39V25.27Z" fill="white"/>
<path d="M693.123 24.18C710.753 24.18 723.663 37.33 724.033 56.08V56.7C724.038 56.7826 724.025 56.8651 723.995 56.9423C723.965 57.0195 723.92 57.0896 723.861 57.148C723.803 57.2065 723.733 57.252 723.656 57.2816C723.578 57.3112 723.496 57.3243 723.413 57.32H672.523C672.023 57.32 671.903 57.56 672.023 57.94C674.383 72.46 687.793 82.51 702.183 82.51C707.931 82.5693 713.575 80.9762 718.443 77.92C718.546 77.8724 718.661 77.8584 718.773 77.8799C718.884 77.9015 718.986 77.9575 719.063 78.04L719.683 78.66C719.749 78.7957 719.783 78.9444 719.783 79.095C719.783 79.2457 719.749 79.3944 719.683 79.53C712.694 85.5727 703.732 88.8425 694.493 88.72C676.623 88.72 660.233 76.43 660.233 56.57C660.233 36.34 676.373 24.18 693.123 24.18ZM672.123 53.59H712.833C713.203 53.59 713.323 53.47 713.323 53.1C715.683 41.1 708.113 28.27 694.093 28.27C679.443 28.27 671.623 39.27 671.623 52.97C671.653 53.34 671.783 53.59 672.153 53.59H672.123Z" fill="white"/>
<path d="M58.4233 6.44004C44.9933 6.19004 32.7033 11.44 24.5433 22.23C24.4706 22.3481 24.4418 22.4879 24.4619 22.625C24.482 22.7621 24.5497 22.8879 24.6533 22.98L25.0233 23.3601C25.3833 23.7401 25.6333 23.7401 25.7633 23.3601C29.0545 19.8699 33.0441 17.1123 37.4722 15.267C41.9003 13.4216 46.6675 12.53 51.4633 12.65C70.0233 13 86.3533 27.76 89.5933 48.76C88.2468 47.7968 86.806 46.9726 85.2933 46.3001C83.1807 45.349 80.9345 44.7284 78.6333 44.46C74.6933 35.7 67.4433 29.31 57.5233 26.33C47.8903 23.4478 37.5876 23.7246 28.1233 27.12C13.6333 32.47 4.60327 44.56 1.24327 59.23C-4.64673 84.93 11.0033 107.4 35.2433 112.95C48.3333 115.95 61.4333 113.34 71.6433 104.45C71.7321 104.345 71.7808 104.212 71.7808 104.075C71.7808 103.938 71.7321 103.805 71.6433 103.7L71.3633 103.25C71.0833 102.8 70.8433 102.75 70.6333 103.08C66.7005 105.81 62.2379 107.682 57.5349 108.576C52.8318 109.471 47.9934 109.366 43.3333 108.27C22.8433 103.57 8.92326 81.37 14.6133 56.52C19.9233 33.37 38.4833 25.89 53.5133 29.33C64.4633 31.84 71.7733 36.33 75.9133 44.33C73.0618 44.3735 70.2497 45.0032 67.652 46.1799C65.0543 47.3567 62.7265 49.0552 60.8133 51.1701H60.3933C58.6447 49.9989 56.7346 49.0893 54.7233 48.47C50.1043 47.0887 45.1704 47.176 40.6033 48.72C39.1833 49.19 28.7933 52.82 25.4833 63.38C24.043 68.2574 24.286 73.4776 26.1733 78.2C28.3227 83.5714 32.1908 88.0795 37.1733 91.02C43.9033 95.38 50.4233 95.79 54.9833 96.09C64.8311 96.7281 74.6293 94.2435 82.9833 88.99C86.4701 86.7811 89.625 84.0874 92.3532 80.99C99.1332 73.1 102.503 62.94 102.703 52.08C103.213 25.69 83.2933 6.91004 58.4233 6.44004ZM57.6533 65.32C57.9305 63.6671 58.4389 62.0614 59.1633 60.5501C59.6292 59.615 60.164 58.7159 60.7633 57.8601C63.6395 59.7326 65.8109 62.5089 66.9352 65.7516C68.0596 68.9943 68.073 72.5189 66.9733 75.77C66.3216 77.8499 65.3645 79.8215 64.1333 81.62H64.0833C62.0139 80.1892 60.3555 78.2412 59.2733 75.97C58.3184 74.0956 57.7151 72.062 57.4933 69.97C57.3407 68.4198 57.3945 66.8561 57.6533 65.32ZM78.7933 84.4C70.6833 91.46 61.1533 91.88 57.6933 92C54.2333 92.12 44.6033 92.45 36.8433 86C35.1933 84.62 30.2033 80.26 29.0133 73.18C28.498 70.6283 28.6286 67.9883 29.3933 65.5C31.5433 58.96 37.8633 56.22 39.4533 55.5C46.6933 52.36 53.5833 54.64 55.4033 55.24L56.0233 55.46C55.3913 56.8439 54.8891 58.2834 54.5233 59.76C53.9758 61.8261 53.7631 63.9666 53.8933 66.1C54.0784 68.6883 54.7573 71.2171 55.8933 73.5501C56.749 75.3932 57.8452 77.1149 59.1533 78.6701C60.3037 80.2419 61.8445 81.4863 63.6233 82.28C62.5191 83.6651 61.1448 84.8111 59.5838 85.6483C58.0229 86.4855 56.3079 86.9965 54.5433 87.15C54.4033 87.15 54.3233 87.21 54.3233 87.41L54.3833 88.01C54.3767 88.05 54.3796 88.091 54.3916 88.1297C54.4037 88.1684 54.4247 88.2038 54.4529 88.2329C54.4811 88.2621 54.5157 88.2842 54.5539 88.2976C54.5922 88.311 54.6331 88.3152 54.6733 88.31C57.6749 87.9991 60.532 86.864 62.9287 85.0303C65.3253 83.1967 67.1681 80.7359 68.2533 77.9201C70.129 73.2936 70.4793 68.1893 69.2533 63.35C68.3958 59.967 66.6726 56.8654 64.2533 54.35C69.8233 50.48 77.6832 49.49 85.2532 52.89C87.0045 53.6599 88.6402 54.6695 90.1133 55.89C90.1133 56.41 90.1133 56.89 90.1133 57.44C89.9233 69.77 85.3333 78.71 78.7933 84.4Z" fill="white"/>
</svg>
